<svg width="103" height="16" viewBox="0 0 103 16" fill="none" xmlns="http://www.w3.org/2000/svg">
<path d="M4.6 15.98C3.808 15.98 3.076 15.824 2.404 15.512C1.744 15.2 1.198 14.75 0.766 14.162L2.062 12.56C2.746 13.52 3.568 14 4.528 14C5.86 14 6.526 13.226 6.526 11.678V3.362H2.026V1.4H8.848V11.552C8.848 13.028 8.488 14.132 7.768 14.864C7.048 15.608 5.992 15.98 4.6 15.98ZM16.4875 12.218C17.5315 12.218 18.4015 11.87 19.0975 11.174L20.2855 12.56C19.8655 13.076 19.3255 13.466 18.6655 13.73C18.0055 13.994 17.2615 14.126 16.4335 14.126C15.3775 14.126 14.4475 13.916 13.6435 13.496C12.8395 13.076 12.2155 12.494 11.7715 11.75C11.3395 10.994 11.1235 10.142 11.1235 9.194C11.1235 8.258 11.3335 7.418 11.7535 6.674C12.1855 5.918 12.7735 5.33 13.5175 4.91C14.2735 4.49 15.1255 4.28 16.0735 4.28C16.9735 4.28 17.7895 4.478 18.5215 4.874C19.2655 5.258 19.8535 5.816 20.2855 6.548C20.7175 7.268 20.9335 8.114 20.9335 9.086L13.5715 10.526C13.7995 11.078 14.1655 11.498 14.6695 11.786C15.1735 12.074 15.7795 12.218 16.4875 12.218ZM16.0735 6.08C15.2455 6.08 14.5735 6.35 14.0575 6.89C13.5535 7.43 13.3015 8.156 13.3015 9.068V9.086L18.7375 8.042C18.5815 7.454 18.2635 6.98 17.7835 6.62C17.3155 6.26 16.7455 6.08 16.0735 6.08ZM26.7131 2.336C25.7651 2.336 25.2911 2.852 25.2911 3.884V4.46H27.9371V6.26H25.3451V14H23.0951V3.848C23.0951 2.828 23.3951 2.018 23.9951 1.418C24.5951 0.817999 25.4471 0.518 26.5511 0.518C27.4031 0.518 28.0751 0.692 28.5671 1.04L27.9371 2.732C27.5771 2.468 27.1691 2.336 26.7131 2.336ZM33.0588 2.336C32.1108 2.336 31.6368 2.852 31.6368 3.884V4.46H34.2828V6.26H31.6908V14H29.4408V3.848C29.4408 2.828 29.7408 2.018 30.3408 1.418C30.9408 0.817999 31.7928 0.518 32.8968 0.518C33.7488 0.518 34.4208 0.692 34.9128 1.04L34.2828 2.732C33.9228 2.468 33.5148 2.336 33.0588 2.336ZM50.1572 4.388V14H48.0152V12.758C47.6432 13.214 47.1812 13.556 46.6292 13.784C46.0892 14.012 45.4892 14.126 44.8292 14.126C43.8932 14.126 43.0532 13.922 42.3092 13.514C41.5772 13.106 41.0012 12.53 40.5812 11.786C40.1732 11.042 39.9692 10.178 39.9692 9.194C39.9692 8.21 40.1732 7.352 40.5812 6.62C41.0012 5.876 41.5772 5.3 42.3092 4.892C43.0532 4.484 43.8932 4.28 44.8292 4.28C45.4532 4.28 46.0232 4.388 46.5392 4.604C47.0672 4.82 47.5232 5.138 47.9072 5.558V4.388H50.1572ZM45.0812 12.2C45.9092 12.2 46.5932 11.924 47.1332 11.372C47.6732 10.82 47.9432 10.094 47.9432 9.194C47.9432 8.294 47.6732 7.568 47.1332 7.016C46.5932 6.464 45.9092 6.188 45.0812 6.188C44.2532 6.188 43.5692 6.464 43.0292 7.016C42.5012 7.568 42.2372 8.294 42.2372 9.194C42.2372 10.094 42.5012 10.82 43.0292 11.372C43.5692 11.924 44.2532 12.2 45.0812 12.2ZM58.555 4.28C59.767 4.28 60.739 4.634 61.471 5.342C62.203 6.05 62.569 7.1 62.569 8.492V14H60.319V8.78C60.319 7.94 60.121 7.31 59.725 6.89C59.329 6.458 58.765 6.242 58.033 6.242C57.205 6.242 56.551 6.494 56.071 6.998C55.591 7.49 55.351 8.204 55.351 9.14V14H53.101V4.388H55.243V5.63C55.615 5.186 56.083 4.85 56.647 4.622C57.211 4.394 57.847 4.28 58.555 4.28ZM74.9252 0.643999V14H72.7652V12.758C72.3932 13.214 71.9312 13.556 71.3792 13.784C70.8392 14.012 70.2392 14.126 69.5792 14.126C68.6552 14.126 67.8212 13.922 67.0772 13.514C66.3452 13.106 65.7692 12.53 65.3492 11.786C64.9292 11.03 64.7192 10.166 64.7192 9.194C64.7192 8.222 64.9292 7.364 65.3492 6.62C65.7692 5.876 66.3452 5.3 67.0772 4.892C67.8212 4.484 68.6552 4.28 69.5792 4.28C70.2152 4.28 70.7972 4.388 71.3252 4.604C71.8532 4.82 72.3032 5.144 72.6752 5.576V0.643999H74.9252ZM69.8492 12.2C70.3892 12.2 70.8752 12.08 71.3072 11.84C71.7392 11.588 72.0812 11.234 72.3332 10.778C72.5852 10.322 72.7112 9.794 72.7112 9.194C72.7112 8.594 72.5852 8.066 72.3332 7.61C72.0812 7.154 71.7392 6.806 71.3072 6.566C70.8752 6.314 70.3892 6.188 69.8492 6.188C69.3092 6.188 68.8232 6.314 68.3912 6.566C67.9592 6.806 67.6172 7.154 67.3652 7.61C67.1132 8.066 66.9872 8.594 66.9872 9.194C66.9872 9.794 67.1132 10.322 67.3652 10.778C67.6172 11.234 67.9592 11.588 68.3912 11.84C68.8232 12.08 69.3092 12.2 69.8492 12.2ZM88.5672 3.272C87.4872 3.272 86.6712 3.512 86.1192 3.992C85.5672 4.472 85.2912 5.18 85.2912 6.116V7.196H90.7812V9.176H85.2912V14H82.9512V6.116C82.9512 4.592 83.4372 3.398 84.4092 2.534C85.3932 1.658 86.7432 1.22 88.4592 1.22C89.1792 1.22 89.8512 1.298 90.4752 1.454C91.0992 1.61 91.6452 1.838 92.1132 2.138L91.3752 4.046C90.6312 3.53 89.6952 3.272 88.5672 3.272ZM102.681 4.388V14H100.539V12.758C100.167 13.214 99.7046 13.556 99.1526 13.784C98.6126 14.012 98.0126 14.126 97.3526 14.126C96.4166 14.126 95.5766 13.922 94.8326 13.514C94.1006 13.106 93.5246 12.53 93.1046 11.786C92.6966 11.042 92.4926 10.178 92.4926 9.194C92.4926 8.21 92.6966 7.352 93.1046 6.62C93.5246 5.876 94.1006 5.3 94.8326 4.892C95.5766 4.484 96.4166 4.28 97.3526 4.28C97.9766 4.28 98.5466 4.388 99.0626 4.604C99.5906 4.82 100.047 5.138 100.431 5.558V4.388H102.681ZM97.6046 12.2C98.4326 12.2 99.1166 11.924 99.6566 11.372C100.197 10.82 100.467 10.094 100.467 9.194C100.467 8.294 100.197 7.568 99.6566 7.016C99.1166 6.464 98.4326 6.188 97.6046 6.188C96.7766 6.188 96.0926 6.464 95.5526 7.016C95.0246 7.568 94.7606 8.294 94.7606 9.194C94.7606 10.094 95.0246 10.82 95.5526 11.372C96.0926 11.924 96.7766 12.2 97.6046 12.2Z" fill="#76071E"/>
</svg>
