<svg width="148" height="18" viewBox="0 0 148 18" fill="none" xmlns="http://www.w3.org/2000/svg">
<path d="M7.10156 12.0664C8.17383 12.0664 9.02344 11.6709 9.65039 10.8799C10.2832 10.0889 10.5996 8.96387 10.5996 7.50488C10.5996 6.05176 10.2832 4.92969 9.65039 4.13867C9.02344 3.3418 8.17383 2.94336 7.10156 2.94336C6.0293 2.94336 5.17383 3.33887 4.53516 4.12988C3.89648 4.9209 3.57715 6.0459 3.57715 7.50488C3.57715 8.96387 3.89648 10.0889 4.53516 10.8799C5.17383 11.6709 6.0293 12.0664 7.10156 12.0664ZM13.3066 7.50488C13.3066 9.83105 12.6533 11.6123 11.3467 12.8486C10.3682 13.8564 8.95312 14.3604 7.10156 14.3604C5.25 14.3604 3.83496 13.8564 2.85645 12.8486C1.54395 11.6123 0.887695 9.83105 0.887695 7.50488C0.887695 5.13184 1.54395 3.35059 2.85645 2.16113C3.83496 1.15332 5.25 0.649414 7.10156 0.649414C8.95312 0.649414 10.3682 1.15332 11.3467 2.16113C12.6533 3.35059 13.3066 5.13184 13.3066 7.50488ZM17.2793 1.04492L16.8398 6.39746H15.3193L14.8799 1.04492H17.2793ZM22.2979 3.29492V11.75H24.7939C26.0713 11.75 26.9619 11.1201 27.4658 9.86035C27.7412 9.16895 27.8789 8.3457 27.8789 7.39062C27.8789 6.07227 27.6709 5.06152 27.2549 4.3584C26.8447 3.64941 26.0244 3.29492 24.7939 3.29492H22.2979ZM25.251 1.04492C26.0537 1.05664 26.7217 1.15039 27.2549 1.32617C28.1631 1.625 28.8984 2.17285 29.4609 2.96973C29.9121 3.61426 30.2197 4.31152 30.3838 5.06152C30.5479 5.81152 30.6299 6.52637 30.6299 7.20605C30.6299 8.92871 30.2842 10.3877 29.5928 11.583C28.6553 13.1943 27.208 14 25.251 14H19.6699V1.04492H25.251ZM36.2197 9.10449H39.5068L37.8896 4.00684L36.2197 9.10449ZM36.3867 1.04492H39.4453L44.0332 14H41.0977L40.2627 11.3369H35.4902L34.5938 14H31.7637L36.3867 1.04492ZM48.3926 3.29492V6.77539H51.46C52.0693 6.77539 52.5264 6.70508 52.8311 6.56445C53.3701 6.31836 53.6396 5.83203 53.6396 5.10547C53.6396 4.32031 53.3789 3.79297 52.8574 3.52344C52.5645 3.37109 52.125 3.29492 51.5391 3.29492H48.3926ZM52.1016 1.04492C53.0098 1.0625 53.707 1.17383 54.1934 1.37891C54.6855 1.58398 55.1016 1.88574 55.4414 2.28418C55.7227 2.6123 55.9453 2.97559 56.1094 3.37402C56.2734 3.77246 56.3555 4.22656 56.3555 4.73633C56.3555 5.35156 56.2002 5.95801 55.8896 6.55566C55.5791 7.14746 55.0664 7.56641 54.3516 7.8125C54.9492 8.05273 55.3711 8.39551 55.6172 8.84082C55.8691 9.28027 55.9951 9.9541 55.9951 10.8623V11.7324C55.9951 12.3242 56.0186 12.7256 56.0654 12.9365C56.1357 13.2705 56.2998 13.5166 56.5576 13.6748V14H53.5781C53.4961 13.7129 53.4375 13.4814 53.4023 13.3057C53.332 12.9424 53.2939 12.5703 53.2881 12.1895L53.2705 10.9854C53.2588 10.1592 53.1064 9.6084 52.8135 9.33301C52.5264 9.05762 51.9844 8.91992 51.1875 8.91992H48.3926V14H45.7471V1.04492H52.1016ZM58.7373 1.04492H61.4004V6.37988L66.4014 1.04492H69.8994L64.5908 6.37988L70.1719 14H66.6914L62.6924 8.33984L61.4004 9.66699V14H58.7373V1.04492ZM75.2432 9.10449H78.5303L76.9131 4.00684L75.2432 9.10449ZM75.4102 1.04492H78.4688L83.0566 14H80.1211L79.2861 11.3369H74.5137L73.6172 14H70.7871L75.4102 1.04492ZM90.4482 11.0469C90.4951 11.5742 90.627 11.9785 90.8438 12.2598C91.2422 12.7695 91.9336 13.0244 92.918 13.0244C93.5039 13.0244 94.0195 12.8984 94.4648 12.6465C94.9102 12.3887 95.1328 11.9932 95.1328 11.46C95.1328 11.0557 94.9541 10.748 94.5967 10.5371C94.3682 10.4082 93.917 10.2588 93.2432 10.0889L91.9863 9.77246C91.1836 9.57324 90.5918 9.35059 90.2109 9.10449C89.5312 8.67676 89.1914 8.08496 89.1914 7.3291C89.1914 6.43848 89.5107 5.71777 90.1494 5.16699C90.7939 4.61621 91.6582 4.34082 92.7422 4.34082C94.1602 4.34082 95.1826 4.75684 95.8096 5.58887C96.2021 6.11621 96.3926 6.68457 96.3809 7.29395H94.8867C94.8574 6.93652 94.7314 6.61133 94.5088 6.31836C94.1455 5.90234 93.5156 5.69434 92.6191 5.69434C92.0215 5.69434 91.5674 5.80859 91.2568 6.03711C90.9521 6.26562 90.7998 6.56738 90.7998 6.94238C90.7998 7.35254 91.002 7.68066 91.4062 7.92676C91.6406 8.07324 91.9863 8.20215 92.4434 8.31348L93.4893 8.56836C94.626 8.84375 95.3877 9.11035 95.7744 9.36816C96.3896 9.77246 96.6973 10.4082 96.6973 11.2754C96.6973 12.1133 96.3779 12.8369 95.7393 13.4463C95.1064 14.0557 94.1396 14.3604 92.8389 14.3604C91.4385 14.3604 90.4453 14.0439 89.8594 13.4111C89.2793 12.7725 88.9688 11.9844 88.9277 11.0469H90.4482ZM102.48 12.9365C103.219 12.9365 103.831 12.6289 104.317 12.0137C104.81 11.3926 105.056 10.4668 105.056 9.23633C105.056 8.48633 104.947 7.8418 104.73 7.30273C104.32 6.26562 103.57 5.74707 102.48 5.74707C101.385 5.74707 100.635 6.29492 100.23 7.39062C100.014 7.97656 99.9053 8.7207 99.9053 9.62305C99.9053 10.3496 100.014 10.9678 100.23 11.4775C100.641 12.4502 101.391 12.9365 102.48 12.9365ZM98.3848 4.63086H99.9229V5.87891C100.239 5.45117 100.585 5.12012 100.96 4.88574C101.493 4.53418 102.12 4.3584 102.841 4.3584C103.907 4.3584 104.812 4.76855 105.557 5.58887C106.301 6.40332 106.673 7.56934 106.673 9.08691C106.673 11.1377 106.137 12.6025 105.064 13.4814C104.385 14.0381 103.594 14.3164 102.691 14.3164C101.982 14.3164 101.388 14.1611 100.907 13.8506C100.626 13.6748 100.312 13.373 99.9668 12.9453V17.7529H98.3848V4.63086ZM112.447 4.37598C113.115 4.37598 113.763 4.53418 114.39 4.85059C115.017 5.16113 115.494 5.56543 115.822 6.06348C116.139 6.53809 116.35 7.0918 116.455 7.72461C116.549 8.1582 116.596 8.84961 116.596 9.79883H109.696C109.726 10.7539 109.951 11.5215 110.373 12.1016C110.795 12.6758 111.448 12.9629 112.333 12.9629C113.159 12.9629 113.818 12.6904 114.311 12.1455C114.592 11.8291 114.791 11.4629 114.908 11.0469H116.464C116.423 11.3926 116.285 11.7793 116.051 12.207C115.822 12.6289 115.564 12.9746 115.277 13.2441C114.797 13.7129 114.202 14.0293 113.493 14.1934C113.112 14.2871 112.682 14.334 112.201 14.334C111.029 14.334 110.036 13.9092 109.222 13.0596C108.407 12.2041 108 11.0088 108 9.47363C108 7.96191 108.41 6.73438 109.23 5.79102C110.051 4.84766 111.123 4.37598 112.447 4.37598ZM114.97 8.54199C114.905 7.85645 114.756 7.30859 114.521 6.89844C114.088 6.13672 113.364 5.75586 112.351 5.75586C111.624 5.75586 111.015 6.01953 110.522 6.54688C110.03 7.06836 109.77 7.7334 109.74 8.54199H114.97ZM122.177 4.31445C123.237 4.31445 124.099 4.57227 124.761 5.08789C125.429 5.60352 125.83 6.49121 125.965 7.75098H124.427C124.333 7.1709 124.119 6.69043 123.785 6.30957C123.451 5.92285 122.915 5.72949 122.177 5.72949C121.169 5.72949 120.448 6.22168 120.015 7.20605C119.733 7.84473 119.593 8.63281 119.593 9.57031C119.593 10.5137 119.792 11.3076 120.19 11.9521C120.589 12.5967 121.216 12.9189 122.071 12.9189C122.728 12.9189 123.246 12.7197 123.627 12.3213C124.014 11.917 124.28 11.3662 124.427 10.6689H125.965C125.789 11.917 125.35 12.8311 124.646 13.4111C123.943 13.9854 123.044 14.2725 121.948 14.2725C120.718 14.2725 119.736 13.8242 119.004 12.9277C118.271 12.0254 117.905 10.9004 117.905 9.55273C117.905 7.90039 118.307 6.61426 119.109 5.69434C119.912 4.77441 120.935 4.31445 122.177 4.31445ZM127.547 4.63086H129.155V14H127.547V4.63086ZM127.547 1.08887H129.155V2.88184H127.547V1.08887ZM131.95 3.1543C131.974 2.49805 132.088 2.01758 132.293 1.71289C132.662 1.17383 133.374 0.904297 134.429 0.904297C134.528 0.904297 134.631 0.907227 134.736 0.913086C134.842 0.918945 134.962 0.927734 135.097 0.939453V2.38086C134.933 2.36914 134.812 2.36328 134.736 2.36328C134.666 2.35742 134.599 2.35449 134.534 2.35449C134.054 2.35449 133.767 2.48047 133.673 2.73242C133.579 2.97852 133.532 3.61133 133.532 4.63086H135.097V5.87891H133.515V14H131.95V5.87891H130.641V4.63086H131.95V3.1543ZM136.617 2.88184V1.08887H138.199V2.88184H136.617ZM136.617 4.63086H138.199V14H136.617V4.63086ZM144.185 4.31445C145.245 4.31445 146.106 4.57227 146.769 5.08789C147.437 5.60352 147.838 6.49121 147.973 7.75098H146.435C146.341 7.1709 146.127 6.69043 145.793 6.30957C145.459 5.92285 144.923 5.72949 144.185 5.72949C143.177 5.72949 142.456 6.22168 142.022 7.20605C141.741 7.84473 141.601 8.63281 141.601 9.57031C141.601 10.5137 141.8 11.3076 142.198 11.9521C142.597 12.5967 143.224 12.9189 144.079 12.9189C144.735 12.9189 145.254 12.7197 145.635 12.3213C146.021 11.917 146.288 11.3662 146.435 10.6689H147.973C147.797 11.917 147.357 12.8311 146.654 13.4111C145.951 13.9854 145.052 14.2725 143.956 14.2725C142.726 14.2725 141.744 13.8242 141.012 12.9277C140.279 12.0254 139.913 10.9004 139.913 9.55273C139.913 7.90039 140.314 6.61426 141.117 5.69434C141.92 4.77441 142.942 4.31445 144.185 4.31445Z" fill="#76071E"/>
</svg>
