<svg width="89" height="15" viewBox="0 0 89 15" fill="none" xmlns="http://www.w3.org/2000/svg">
<path d="M3.33105 10.001C3.41309 10.5928 3.57422 11.0352 3.81445 11.3281C4.25391 11.8613 5.00684 12.1279 6.07324 12.1279C6.71191 12.1279 7.23047 12.0576 7.62891 11.917C8.38477 11.6475 8.7627 11.1465 8.7627 10.4141C8.7627 9.98633 8.5752 9.65527 8.2002 9.4209C7.8252 9.19238 7.23633 8.99023 6.43359 8.81445L5.0625 8.50684C3.71484 8.20215 2.7832 7.87109 2.26758 7.51367C1.39453 6.91602 0.958008 5.98145 0.958008 4.70996C0.958008 3.5498 1.37988 2.58594 2.22363 1.81836C3.06738 1.05078 4.30664 0.666992 5.94141 0.666992C7.30664 0.666992 8.46973 1.03027 9.43066 1.75684C10.3975 2.47754 10.9043 3.52637 10.9512 4.90332H8.34961C8.30273 4.12402 7.96289 3.57031 7.33008 3.24219C6.9082 3.02539 6.38379 2.91699 5.75684 2.91699C5.05957 2.91699 4.50293 3.05762 4.08691 3.33887C3.6709 3.62012 3.46289 4.0127 3.46289 4.5166C3.46289 4.97949 3.66797 5.3252 4.07812 5.55371C4.3418 5.70605 4.9043 5.88477 5.76562 6.08984L7.99805 6.62598C8.97656 6.86035 9.71484 7.17383 10.2129 7.56641C10.9863 8.17578 11.373 9.05762 11.373 10.2119C11.373 11.3955 10.9189 12.3799 10.0107 13.165C9.1084 13.9443 7.83105 14.334 6.17871 14.334C4.49121 14.334 3.16406 13.9502 2.19727 13.1826C1.23047 12.4092 0.74707 11.3486 0.74707 10.001H3.33105ZM13.3594 14V1.04492H16.04V5.98438H21.1025V1.04492H23.792V14H21.1025V8.2168H16.04V14H13.3594ZM35.7979 1.04492V3.33887H31.9219V14H29.1973V3.33887H25.3037V1.04492H35.7979ZM42.8027 12.0664C43.875 12.0664 44.7246 11.6709 45.3516 10.8799C45.9844 10.0889 46.3008 8.96387 46.3008 7.50488C46.3008 6.05176 45.9844 4.92969 45.3516 4.13867C44.7246 3.3418 43.875 2.94336 42.8027 2.94336C41.7305 2.94336 40.875 3.33887 40.2363 4.12988C39.5977 4.9209 39.2783 6.0459 39.2783 7.50488C39.2783 8.96387 39.5977 10.0889 40.2363 10.8799C40.875 11.6709 41.7305 12.0664 42.8027 12.0664ZM49.0078 7.50488C49.0078 9.83105 48.3545 11.6123 47.0479 12.8486C46.0693 13.8564 44.6543 14.3604 42.8027 14.3604C40.9512 14.3604 39.5361 13.8564 38.5576 12.8486C37.2451 11.6123 36.5889 9.83105 36.5889 7.50488C36.5889 5.13184 37.2451 3.35059 38.5576 2.16113C39.5361 1.15332 40.9512 0.649414 42.8027 0.649414C44.6543 0.649414 46.0693 1.15332 47.0479 2.16113C48.3545 3.35059 49.0078 5.13184 49.0078 7.50488ZM58.4736 1.04492H61.541L57.208 9.13086V14H54.501V9.13086L50.0186 1.04492H53.209L55.8984 6.6875L58.4736 1.04492ZM63.1318 1.04492H65.7949V6.37988L70.7959 1.04492H74.2939L68.9854 6.37988L74.5664 14H71.0859L67.0869 8.33984L65.7949 9.66699V14H63.1318V1.04492ZM81.8262 12.0664C82.8984 12.0664 83.748 11.6709 84.375 10.8799C85.0078 10.0889 85.3242 8.96387 85.3242 7.50488C85.3242 6.05176 85.0078 4.92969 84.375 4.13867C83.748 3.3418 82.8984 2.94336 81.8262 2.94336C80.7539 2.94336 79.8984 3.33887 79.2598 4.12988C78.6211 4.9209 78.3018 6.0459 78.3018 7.50488C78.3018 8.96387 78.6211 10.0889 79.2598 10.8799C79.8984 11.6709 80.7539 12.0664 81.8262 12.0664ZM88.0312 7.50488C88.0312 9.83105 87.3779 11.6123 86.0713 12.8486C85.0928 13.8564 83.6777 14.3604 81.8262 14.3604C79.9746 14.3604 78.5596 13.8564 77.5811 12.8486C76.2686 11.6123 75.6123 9.83105 75.6123 7.50488C75.6123 5.13184 76.2686 3.35059 77.5811 2.16113C78.5596 1.15332 79.9746 0.649414 81.8262 0.649414C83.6777 0.649414 85.0928 1.15332 86.0713 2.16113C87.3779 3.35059 88.0312 5.13184 88.0312 7.50488Z" fill="#76071E"/>
</svg>
