<svg width="68" height="68" viewBox="0 0 68 68" fill="none" xmlns="http://www.w3.org/2000/svg">
<circle cx="34" cy="34" r="33.5" stroke="#B74234"/>
<path d="M12.842 30.2V40H11.82V35.478H5.688V40H4.652V30.2H5.688V34.568H11.82V30.2H12.842ZM18.95 40.07C18.2407 40.07 17.6014 39.9113 17.032 39.594C16.4627 39.2673 16.0147 38.8193 15.688 38.25C15.3614 37.6807 15.198 37.0367 15.198 36.318C15.198 35.5993 15.3614 34.9553 15.688 34.386C16.0147 33.8167 16.4627 33.3733 17.032 33.056C17.6014 32.7387 18.2407 32.58 18.95 32.58C19.6594 32.58 20.2987 32.7387 20.868 33.056C21.4374 33.3733 21.8807 33.8167 22.198 34.386C22.5247 34.9553 22.688 35.5993 22.688 36.318C22.688 37.0367 22.5247 37.6807 22.198 38.25C21.8807 38.8193 21.4374 39.2673 20.868 39.594C20.2987 39.9113 19.6594 40.07 18.95 40.07ZM18.95 39.188C19.4727 39.188 19.9394 39.0713 20.35 38.838C20.77 38.5953 21.0967 38.2547 21.33 37.816C21.5634 37.3773 21.68 36.878 21.68 36.318C21.68 35.758 21.5634 35.2587 21.33 34.82C21.0967 34.3813 20.77 34.0453 20.35 33.812C19.9394 33.5693 19.4727 33.448 18.95 33.448C18.4274 33.448 17.956 33.5693 17.536 33.812C17.1254 34.0453 16.7987 34.3813 16.556 34.82C16.3227 35.2587 16.206 35.758 16.206 36.318C16.206 36.878 16.3227 37.3773 16.556 37.816C16.7987 38.2547 17.1254 38.5953 17.536 38.838C17.956 39.0713 18.4274 39.188 18.95 39.188ZM29.5024 36.192C30.5011 36.4253 31.0004 37.0273 31.0004 37.998C31.0004 38.642 30.7624 39.1367 30.2864 39.482C29.8104 39.8273 29.1011 40 28.1584 40H24.8124V32.636H28.0604C28.9004 32.636 29.5584 32.7993 30.0344 33.126C30.5104 33.4527 30.7484 33.9193 30.7484 34.526C30.7484 34.9273 30.6364 35.2727 30.4124 35.562C30.1978 35.842 29.8944 36.052 29.5024 36.192ZM25.7784 35.912H27.9904C28.5598 35.912 28.9938 35.8047 29.2924 35.59C29.6004 35.3753 29.7544 35.0627 29.7544 34.652C29.7544 34.2413 29.6004 33.9333 29.2924 33.728C28.9938 33.5227 28.5598 33.42 27.9904 33.42H25.7784V35.912ZM28.1164 39.216C28.7511 39.216 29.2271 39.1133 29.5444 38.908C29.8618 38.7027 30.0204 38.3807 30.0204 37.942C30.0204 37.5033 29.8758 37.1813 29.5864 36.976C29.2971 36.7613 28.8398 36.654 28.2144 36.654H25.7784V39.216H28.1164ZM39.812 32.636V40H38.86V38.656C38.5987 39.104 38.2393 39.454 37.782 39.706C37.3247 39.9487 36.802 40.07 36.214 40.07C35.2433 40.07 34.478 39.804 33.918 39.272C33.3673 38.7307 33.092 37.942 33.092 36.906V32.636H34.086V36.808C34.086 37.5827 34.2773 38.1707 34.66 38.572C35.0427 38.9733 35.5933 39.174 36.312 39.174C37.0867 39.174 37.698 38.9407 38.146 38.474C38.594 37.998 38.818 37.34 38.818 36.5V32.636H39.812ZM42.6406 32.636H43.6346V35.898H48.2686V32.636H49.2626V40H48.2686V36.752H43.6346V40H42.6406V32.636ZM54.7618 36.724H53.0818V40H52.0878V32.636H53.0818V35.87H54.7758L57.3658 32.636H58.4438L55.5458 36.206L58.6538 40H57.4778L54.7618 36.724ZM66.6548 32.636V40H65.7028V38.544C65.4042 39.0387 65.0075 39.4167 64.5128 39.678C64.0275 39.9393 63.4768 40.07 62.8608 40.07C62.1702 40.07 61.5448 39.9113 60.9848 39.594C60.4248 39.2767 59.9862 38.8333 59.6688 38.264C59.3515 37.6947 59.1928 37.046 59.1928 36.318C59.1928 35.59 59.3515 34.9413 59.6688 34.372C59.9862 33.8027 60.4248 33.364 60.9848 33.056C61.5448 32.7387 62.1702 32.58 62.8608 32.58C63.4582 32.58 63.9948 32.706 64.4708 32.958C64.9562 33.2007 65.3528 33.56 65.6608 34.036V32.636H66.6548ZM62.9448 39.188C63.4582 39.188 63.9202 39.0713 64.3308 38.838C64.7508 38.5953 65.0775 38.2547 65.3108 37.816C65.5535 37.3773 65.6748 36.878 65.6748 36.318C65.6748 35.758 65.5535 35.2587 65.3108 34.82C65.0775 34.3813 64.7508 34.0453 64.3308 33.812C63.9202 33.5693 63.4582 33.448 62.9448 33.448C62.4222 33.448 61.9508 33.5693 61.5308 33.812C61.1202 34.0453 60.7935 34.3813 60.5508 34.82C60.3175 35.2587 60.2008 35.758 60.2008 36.318C60.2008 36.878 60.3175 37.3773 60.5508 37.816C60.7935 38.2547 61.1202 38.5953 61.5308 38.838C61.9508 39.0713 62.4222 39.188 62.9448 39.188Z" fill="#B74234"/>
</svg>
