<svg width="98" height="84" viewBox="0 0 98 84" fill="none" xmlns="http://www.w3.org/2000/svg">
<mask id="path-1-inside-1_135_15" fill="white">
<path fill-rule="evenodd" clip-rule="evenodd" d="M51.9849 82.8059C70.3606 78.3251 84 61.7554 84 42C84 22.2446 70.3606 5.67495 51.9849 1.1941C53.3059 1.0657 54.6453 1 56 1C78.6437 1 97 19.3563 97 42C97 64.6437 78.6437 83 56 83C54.6453 83 53.3059 82.9343 51.9849 82.8059ZM49 0.580709C46.7235 0.198792 44.385 0 42 0C18.804 0 0 18.804 0 42C0 65.196 18.804 84 42 84C44.385 84 46.7235 83.8012 49 83.4193C51.2765 83.8012 53.615 84 56 84C79.196 84 98 65.196 98 42C98 18.804 79.196 0 56 0C53.615 0 51.2765 0.198792 49 0.580709Z"/>
</mask>
<path fill-rule="evenodd" clip-rule="evenodd" d="M51.9849 82.8059C70.3606 78.3251 84 61.7554 84 42C84 22.2446 70.3606 5.67495 51.9849 1.1941C53.3059 1.0657 54.6453 1 56 1C78.6437 1 97 19.3563 97 42C97 64.6437 78.6437 83 56 83C54.6453 83 53.3059 82.9343 51.9849 82.8059ZM49 0.580709C46.7235 0.198792 44.385 0 42 0C18.804 0 0 18.804 0 42C0 65.196 18.804 84 42 84C44.385 84 46.7235 83.8012 49 83.4193C51.2765 83.8012 53.615 84 56 84C79.196 84 98 65.196 98 42C98 18.804 79.196 0 56 0C53.615 0 51.2765 0.198792 49 0.580709Z" fill="#9D3B51" fill-opacity="0.55"/>
<path d="M51.9849 82.8059L51.748 81.8344L51.8882 83.8012L51.9849 82.8059ZM51.9849 1.1941L51.8882 0.198788L51.748 2.16563L51.9849 1.1941ZM49 0.580709L48.8345 1.56693L49 1.59468L49.1655 1.56693L49 0.580709ZM49 83.4193L49.1655 82.4331L49 82.4053L48.8345 82.4331L49 83.4193ZM83 42C83 61.2837 69.6862 77.4602 51.748 81.8344L52.2218 83.7774C71.0349 79.1899 85 62.227 85 42H83ZM51.748 2.16563C69.6862 6.53981 83 22.7163 83 42H85C85 21.773 71.0349 4.81009 52.2218 0.222565L51.748 2.16563ZM56 0C54.6129 0 53.2413 0.0672736 51.8882 0.198788L52.0816 2.18941C53.3706 2.06413 54.6776 2 56 2V0ZM98 42C98 18.804 79.196 0 56 0V2C78.0914 2 96 19.9086 96 42H98ZM56 84C79.196 84 98 65.196 98 42H96C96 64.0914 78.0914 82 56 82V84ZM51.8882 83.8012C53.2413 83.9327 54.6129 84 56 84V82C54.6776 82 53.3706 81.9359 52.0816 81.8106L51.8882 83.8012ZM42 1C44.3293 1 46.6125 1.19414 48.8345 1.56693L49.1655 -0.405508C46.8345 -0.796561 44.4407 -1 42 -1V1ZM1 42C1 19.3563 19.3563 1 42 1V-1C18.2518 -1 -1 18.2518 -1 42H1ZM42 83C19.3563 83 1 64.6437 1 42H-1C-1 65.7482 18.2518 85 42 85V83ZM48.8345 82.4331C46.6125 82.8059 44.3293 83 42 83V85C44.4407 85 46.8345 84.7966 49.1655 84.4055L48.8345 82.4331ZM48.8345 84.4055C51.1655 84.7966 53.5593 85 56 85V83C53.6707 83 51.3875 82.8059 49.1655 82.4331L48.8345 84.4055ZM56 85C79.7482 85 99 65.7482 99 42H97C97 64.6437 78.6437 83 56 83V85ZM99 42C99 18.2518 79.7482 -1 56 -1V1C78.6437 1 97 19.3563 97 42H99ZM56 -1C53.5593 -1 51.1655 -0.796561 48.8345 -0.405508L49.1655 1.56693C51.3875 1.19414 53.6707 1 56 1V-1Z" fill="#FAB3C9" mask="url(#path-1-inside-1_135_15)"/>
</svg>
