<svg width="53" height="32" viewBox="0 0 53 32" fill="none" xmlns="http://www.w3.org/2000/svg">
<path d="M52.138 15.6584C52.138 24.2747 45.2185 31.3169 36.569 31.3169C28.0019 31.3169 21 24.2747 21 15.6584C21 7.04215 27.9196 0 36.4866 0C45.2185 0 52.138 7.04215 52.138 15.6584Z" fill="#FFB600"/>
<path d="M36.569 0C45.1361 0 52.138 7.04215 52.138 15.6584C52.138 24.2747 45.2185 31.3169 36.569 31.3169C28.0019 31.3169 21 24.2747 21 15.6584" fill="#F7981D"/>
<path d="M36 0C44.5671 0 51.569 7.04215 51.569 15.6584C51.569 24.2747 44.6494 31.3169 36 31.3169" fill="#FF8500"/>
<path d="M15.4043 0C6.91956 0.0828488 0 7.04215 0 15.6584C0 24.2747 6.91956 31.3169 15.569 31.3169C19.6054 31.3169 23.23 29.7427 26.0307 27.2573C26.6074 26.7602 27.1016 26.1802 27.5959 25.6003H24.3832C23.9713 25.1032 23.5595 24.5232 23.23 24.0262H28.7491C29.0786 23.5291 29.4081 22.9491 29.6553 22.3692H22.3238C22.0767 21.8721 21.8296 21.2921 21.6648 20.7122H30.2319C30.7261 19.1381 31.0556 17.4811 31.0556 15.7413C31.0556 14.5814 30.8909 13.5044 30.7261 12.4273H21.1706C21.2529 11.8474 21.4177 11.3503 21.5824 10.7703H30.1495C29.9848 10.1904 29.7376 9.61046 29.4905 9.11337H22.2414C22.4886 8.53343 22.8181 8.03633 23.1476 7.45639H28.6667C28.3372 6.87645 27.9254 6.29651 27.4311 5.79942H24.3832C24.8775 5.21948 25.3717 4.72238 25.9484 4.22529C23.23 1.65698 19.523 0.165697 15.4866 0.165697C15.4866 -1.60491e-07 15.4866 0 15.4043 0Z" fill="#FF5050"/>
<path d="M0 15.4927C0 24.109 6.91956 31.1512 15.569 31.1512C19.6054 31.1512 23.23 29.577 26.0307 27.0916C26.6074 26.5945 27.1016 26.0145 27.5959 25.4346H24.3832C23.9713 24.9375 23.5595 24.3576 23.23 23.8605H28.7491C29.0786 23.3634 29.4081 22.7834 29.6553 22.2035H22.3238C22.0767 21.7064 21.8296 21.1265 21.6648 20.5465H30.2319C30.7261 18.9724 31.0556 17.3154 31.0556 15.5756C31.0556 14.4157 30.8909 13.3387 30.7261 12.2616H21.1706C21.2529 11.6817 21.4177 11.1846 21.5824 10.6047H30.1495C29.9848 10.0247 29.7376 9.44477 29.4905 8.94768H22.2414C22.4886 8.36774 22.8181 7.87064 23.1476 7.2907H28.6667C28.3372 6.71076 27.9254 6.13082 27.4311 5.63372H24.3832C24.8775 5.05378 25.3717 4.55669 25.9484 4.0596C23.23 1.49128 19.523 0 15.4866 0H15.4043" fill="#E52836"/>
<path d="M15.1648 31.1512C19.2012 31.1512 22.8257 29.577 25.6265 27.0916C26.2031 26.5945 26.6974 26.0145 27.1916 25.4346H23.979C23.5671 24.9375 23.1552 24.3576 22.8257 23.8605H28.3449C28.6744 23.3634 29.0039 22.7834 29.251 22.2035H21.9196C21.6724 21.7064 21.4253 21.1265 21.2606 20.5465H29.8276C30.3219 18.9724 30.6514 17.3154 30.6514 15.5756C30.6514 14.4157 30.4866 13.3387 30.3219 12.2616H20.7663C20.8487 11.6817 21.0134 11.1846 21.1782 10.6047H29.7453C29.5805 10.0247 29.3334 9.44477 29.0862 8.94768H21.8372C22.0843 8.36774 22.4138 7.87064 22.7433 7.2907H28.2625C27.933 6.71076 27.5211 6.13082 27.0269 5.63372H23.979C24.4732 5.05378 24.9675 4.55669 25.5441 4.0596C22.8257 1.49128 19.1188 0 15.0824 0H15" fill="#CB2026"/>
<path d="M20.3889 20.2907L20.636 18.8823C20.5536 18.8823 20.3889 18.9651 20.2241 18.9651C19.6475 18.9651 19.5651 18.6337 19.6475 18.468L20.1418 15.5683H21.0479L21.295 13.9942H20.4713L20.636 13H18.9885C18.9885 13 18 18.468 18 19.1308C18 20.125 18.5766 20.5392 19.318 20.5392C19.8123 20.5392 20.2241 20.3735 20.3889 20.2907Z" fill="white"/>
<path d="M21 17.7387C21 20.0584 22.5651 20.6384 23.8831 20.6384C25.1188 20.6384 25.613 20.3898 25.613 20.3898L25.9425 18.8157C25.9425 18.8157 25.0364 19.23 24.2127 19.23C22.4004 19.23 22.7299 17.9044 22.7299 17.9044H26.1073C26.1073 17.9044 26.3544 16.8273 26.3544 16.4131C26.3544 15.3361 25.7778 14.0105 23.9655 14.0105C22.2356 13.8448 21 15.6675 21 17.7387ZM23.8831 15.3361C24.7893 15.3361 24.6245 16.4131 24.6245 16.4959H22.8123C22.8123 16.4131 22.977 15.3361 23.8831 15.3361Z" fill="white"/>
<path d="M34.5307 20.0363L34.8602 18.2137C34.8602 18.2137 34.0364 18.6279 33.4598 18.6279C32.3065 18.6279 31.8123 17.7166 31.8123 16.7224C31.8123 14.734 32.8008 13.657 33.954 13.657C34.7778 13.657 35.4368 14.1541 35.4368 14.1541L35.6839 12.4142C35.6839 12.4142 34.6954 12 33.7893 12C31.8946 12 30 13.657 30 16.8052C30 18.8765 30.9885 20.2849 32.9655 20.2849C33.6245 20.2849 34.5307 20.0363 34.5307 20.0363Z" fill="white"/>
<path d="M11.1303 13C9.97702 13 9.15326 13.3314 9.15326 13.3314L8.90613 14.7398C8.90613 14.7398 9.64751 14.4084 10.7184 14.4084C11.295 14.4084 11.7893 14.4913 11.7893 14.9884C11.7893 15.3198 11.7069 15.4026 11.7069 15.4026C11.7069 15.4026 11.2127 15.4026 10.9655 15.4026C9.56514 15.4026 8 15.9826 8 17.8881C8 19.3794 8.98851 19.7108 9.56514 19.7108C10.7184 19.7108 11.2127 18.9651 11.295 18.9651L11.2127 19.6279H12.6954L13.3544 15.0712C13.3544 13.0828 11.7069 13 11.1303 13ZM11.4598 16.7282C11.4598 16.9767 11.295 18.3023 10.3065 18.3023C9.81227 18.3023 9.64751 17.8881 9.64751 17.6395C9.64751 17.2253 9.89464 16.6453 11.1303 16.6453C11.3774 16.7282 11.4598 16.7282 11.4598 16.7282Z" fill="white"/>
<path d="M14.8946 19.7936C15.3065 19.7936 17.3659 19.8765 17.3659 17.6395C17.3659 15.5683 15.3889 15.9826 15.3889 15.1541C15.3889 14.7398 15.7184 14.5741 16.295 14.5741C16.5422 14.5741 17.4483 14.657 17.4483 14.657L17.6954 13.1657C17.6954 13.1657 17.1188 13 16.1303 13C14.8946 13 13.659 13.4971 13.659 15.1541C13.659 17.0596 15.7184 16.8939 15.7184 17.6395C15.7184 18.1366 15.1418 18.2195 14.7299 18.2195C13.9885 18.2195 13.2471 17.9709 13.2471 17.9709L13 19.4622C13.0824 19.6279 13.4943 19.7936 14.8946 19.7936Z" fill="white"/>
<path d="M48.6954 12L48.3659 14.2369C48.3659 14.2369 47.7069 13.4084 46.8008 13.4084C45.318 13.4084 44 15.2311 44 17.3852C44 18.7108 44.659 20.1192 46.0594 20.1192C47.0479 20.1192 47.6245 19.4564 47.6245 19.4564L47.5422 20.0363H49.1897L50.4253 12.0828L48.6954 12ZM47.954 16.391C47.954 17.3023 47.5422 18.4622 46.636 18.4622C46.0594 18.4622 45.7299 17.9651 45.7299 17.1366C45.7299 15.811 46.3065 14.9826 47.0479 14.9826C47.6245 14.9826 47.954 15.3968 47.954 16.391Z" fill="white"/>
<path d="M2.56514 19.9535L3.55365 13.9884L3.7184 19.9535H4.87166L7.01343 13.9884L6.1073 19.9535H7.83719L9.1552 12H6.4368L4.78928 16.8881L4.70691 12H2.31801L1 19.9535H2.56514Z" fill="white"/>
<path d="M27.8123 20.4622C28.3065 17.7282 28.3889 15.4913 29.5422 15.9055C29.7069 14.8285 29.954 14.4142 30.1188 14C30.1188 14 30.0364 14 29.7893 14C29.0479 14 28.4713 14.9942 28.4713 14.9942L28.636 14.0828H27.0709L26 20.5451H27.8123V20.4622Z" fill="white"/>
<path d="M38.1303 13C36.977 13 36.1533 13.3314 36.1533 13.3314L35.9061 14.7398C35.9061 14.7398 36.6475 14.4084 37.7184 14.4084C38.295 14.4084 38.7893 14.4913 38.7893 14.9884C38.7893 15.3198 38.7069 15.4026 38.7069 15.4026C38.7069 15.4026 38.2127 15.4026 37.9655 15.4026C36.5651 15.4026 35 15.9826 35 17.8881C35 19.3794 35.9885 19.7108 36.5651 19.7108C37.7184 19.7108 38.2127 18.9651 38.295 18.9651L38.2127 19.6279H39.6954L40.3544 15.0712C40.4368 13.0828 38.7069 13 38.1303 13ZM38.5422 16.7282C38.5422 16.9767 38.3774 18.3023 37.3889 18.3023C36.8946 18.3023 36.7299 17.8881 36.7299 17.6395C36.7299 17.2253 36.977 16.6453 38.2127 16.6453C38.4598 16.7282 38.4598 16.7282 38.5422 16.7282Z" fill="white"/>
<path d="M41.8123 20.4622C42.3065 17.7282 42.3889 15.4913 43.5422 15.9055C43.7069 14.8285 43.954 14.4142 44.1188 14C44.1188 14 44.0364 14 43.7893 14C43.0479 14 42.4713 14.9942 42.4713 14.9942L42.636 14.0828H41.0709L40 20.5451H41.8123V20.4622Z" fill="white"/>
<path d="M18 19.1308C18 20.125 18.5766 20.5392 19.318 20.5392C19.8946 20.5392 20.3889 20.3735 20.5536 20.2907L20.8008 18.8823C20.7184 18.8823 20.5536 18.9651 20.3889 18.9651C19.8123 18.9651 19.7299 18.6337 19.8123 18.468L20.3065 15.5683H21.2126L21.4598 13.9942H20.636L20.8008 13" fill="#DCE5E5"/>
<path d="M22 17.7387C22 20.0584 22.7414 20.6384 24.0594 20.6384C25.295 20.6384 25.7893 20.3898 25.7893 20.3898L26.1188 18.8157C26.1188 18.8157 25.2127 19.23 24.3889 19.23C22.5766 19.23 22.9061 17.9044 22.9061 17.9044H26.2835C26.2835 17.9044 26.5307 16.8273 26.5307 16.4131C26.5307 15.3361 25.954 14.0105 24.1418 14.0105C22.4119 13.8448 22 15.6675 22 17.7387ZM24.0594 15.3361C24.9655 15.3361 25.1303 16.4131 25.1303 16.4959H22.9885C22.9885 16.4131 23.1533 15.3361 24.0594 15.3361Z" fill="#DCE5E5"/>
<path d="M34.7069 20.0363L35.0364 18.2137C35.0364 18.2137 34.2127 18.6279 33.636 18.6279C32.4828 18.6279 31.9885 17.7166 31.9885 16.7224C31.9885 14.734 32.977 13.657 34.1303 13.657C34.954 13.657 35.613 14.1541 35.613 14.1541L35.8602 12.4142C35.8602 12.4142 34.8717 12 33.9655 12C32.0709 12 31 13.657 31 16.8052C31 18.8765 31.1648 20.2849 33.1418 20.2849C33.8008 20.2849 34.7069 20.0363 34.7069 20.0363Z" fill="#DCE5E5"/>
<path d="M8.90613 15.657C8.90613 15.657 9.64751 15.3256 10.7184 15.3256C11.295 15.3256 11.7893 15.4084 11.7893 15.9055C11.7893 16.2369 11.7069 16.3198 11.7069 16.3198C11.7069 16.3198 11.2127 16.3198 10.9655 16.3198C9.56514 16.3198 8 16.8997 8 18.8052C8 20.2965 8.98851 20.6279 9.56514 20.6279C10.7184 20.6279 11.2127 19.8823 11.295 19.8823L11.2127 20.5451H12.6954L13.3544 15.9884C13.3544 14.0828 11.7069 14 11.0479 14L8.90613 15.657ZM12.2835 17.5625C12.2835 17.811 11.295 19.1366 10.3065 19.1366C9.81227 19.1366 9.64751 18.7224 9.64751 18.4738C9.64751 18.0596 9.89464 17.4797 11.1303 17.4797C11.3774 17.5625 12.2835 17.5625 12.2835 17.5625Z" fill="#DCE5E5"/>
<path d="M14 19.6279C14 19.6279 14.4943 19.7936 15.8946 19.7936C16.3065 19.7936 18.3659 19.8765 18.3659 17.6395C18.3659 15.5683 16.3889 15.9826 16.3889 15.1541C16.3889 14.7398 16.7184 14.5741 17.295 14.5741C17.5422 14.5741 18.4483 14.657 18.4483 14.657L18.6954 13.1657C18.6954 13.1657 18.1188 13 17.1303 13C15.8946 13 15.4828 13.4971 15.4828 15.1541C15.4828 17.0596 16.7184 16.8939 16.7184 17.6395C16.7184 18.1366 16.1418 18.2195 15.7299 18.2195" fill="#DCE5E5"/>
<path d="M47.5481 14.1541C47.5481 14.1541 46.8891 13.3256 45.983 13.3256C44.5002 13.3256 44.006 15.1483 44.006 17.3023C44.006 18.6279 43.8412 20.0363 45.2416 20.0363C46.2301 20.0363 46.8067 19.3735 46.8067 19.3735L46.7244 19.9535H48.3719L49.6075 12L47.5481 14.1541ZM47.4658 16.3081C47.4658 17.2195 46.7244 18.3794 45.8182 18.3794C45.2416 18.3794 44.9121 17.8823 44.9121 17.0538C44.9121 15.7282 45.4887 14.8997 46.2301 14.8997C46.8067 14.8997 47.4658 15.314 47.4658 16.3081Z" fill="#DCE5E5"/>
<path d="M2.56514 19.9535L3.55365 13.9884L3.7184 19.9535H4.87166L7.01343 13.9884L6.1073 19.9535H7.83719L9.1552 12H7.09581L4.78928 16.8881L4.70691 12H3.80078L1 19.9535H2.56514Z" fill="#DCE5E5"/>
<path d="M26 20.4622H27.7299C28.2241 17.7282 28.3065 15.4913 29.4598 15.9055C29.6245 14.8285 29.8717 14.4142 30.0364 14C30.0364 14 29.954 14 29.7069 14C28.9655 14 28.3889 14.9942 28.3889 14.9942L28.5537 14.0828" fill="#DCE5E5"/>
<path d="M35.9061 15.657C35.9061 15.657 36.6475 15.3256 37.7184 15.3256C38.295 15.3256 38.7893 15.4084 38.7893 15.9055C38.7893 16.2369 38.7069 16.3198 38.7069 16.3198C38.7069 16.3198 38.2127 16.3198 37.9655 16.3198C36.5651 16.3198 35 16.8997 35 18.8052C35 20.2965 35.9885 20.6279 36.5651 20.6279C37.7184 20.6279 38.2127 19.8823 38.295 19.8823L38.2127 20.5451H39.6954L40.3544 15.9884C40.3544 14.0828 38.7069 14 38.0479 14L35.9061 15.657ZM39.2835 17.5625C39.2835 17.811 38.295 19.1366 37.3065 19.1366C36.8123 19.1366 36.6475 18.7224 36.6475 18.4738C36.6475 18.0596 36.8946 17.4797 38.1303 17.4797C38.4598 17.5625 39.2835 17.5625 39.2835 17.5625Z" fill="#DCE5E5"/>
<path d="M40 20.4622H41.7299C42.2241 17.7282 42.3065 15.4913 43.4598 15.9055C43.6245 14.8285 43.8717 14.4142 44.0364 14C44.0364 14 43.954 14 43.7069 14C42.9655 14 42.3889 14.9942 42.3889 14.9942L42.5536 14.0828" fill="#DCE5E5"/>
</svg>
