<svg width="52" height="17" viewBox="0 0 52 17" fill="none" xmlns="http://www.w3.org/2000/svg">
<g clip-path="url(#clip0_38_587)">
<path d="M19 15.572L21.5906 1H25.6383L23.1287 15.572H19Z" fill="#3C58BF"/>
<path d="M19 15.572L22.3192 1H25.6383L23.1287 15.572H19Z" fill="#293688"/>
<path d="M37.3862 1.64764C36.5766 1.32382 35.2813 1 33.6622 1C29.6145 1 26.7001 3.02389 26.7001 5.93828C26.7001 8.12408 28.724 9.25746 30.3431 9.98605C31.9622 10.7147 32.4479 11.2004 32.4479 11.848C32.4479 12.8195 31.1526 13.3052 30.0192 13.3052C28.4001 13.3052 27.5096 13.0624 26.1334 12.4957L25.5667 12.2528L25 15.572C25.9715 15.9768 27.7525 16.3815 29.6145 16.3815C33.9051 16.3815 36.7385 14.3577 36.7385 11.2813C36.7385 9.58128 35.6861 8.28599 33.2575 7.23357C31.8003 6.50497 30.9097 6.10019 30.9097 5.37159C30.9097 4.72395 31.6384 4.07631 33.2575 4.07631C34.6337 4.07631 35.6052 4.31917 36.3338 4.643L36.7385 4.80491L37.3862 1.64764Z" fill="#3C58BF"/>
<path d="M37.3862 1.64764C36.5766 1.32382 35.2813 1 33.6622 1C29.6145 1 27.4287 3.02389 27.4287 5.93828C27.4287 8.12408 28.724 9.25746 30.3431 9.98605C31.9622 10.7147 32.4479 11.2004 32.4479 11.848C32.4479 12.8195 31.1526 13.3052 30.0192 13.3052C28.4001 13.3052 27.5096 13.0624 26.1334 12.4957L25.5667 12.2528L25 15.572C25.9715 15.9768 27.7525 16.3815 29.6145 16.3815C33.9051 16.3815 36.7385 14.3577 36.7385 11.2813C36.7385 9.58128 35.6861 8.28599 33.2575 7.23357C31.8003 6.50497 30.9097 6.10019 30.9097 5.37159C30.9097 4.72395 31.6384 4.07631 33.2575 4.07631C34.6337 4.07631 35.6052 4.31917 36.3338 4.643L36.7385 4.80491L37.3862 1.64764Z" fill="#293688"/>
<path d="M44.1765 1C43.205 1 42.4764 1.08096 42.0717 2.05242L36 15.572H40.3716L41.1811 13.1433H46.3623L46.848 15.572H50.7339L47.3338 1H44.1765ZM42.3145 10.7147C42.5574 9.98606 43.9336 6.42402 43.9336 6.42402C43.9336 6.42402 44.2575 5.53351 44.5003 4.96682L44.7432 6.34306C44.7432 6.34306 45.5527 9.98606 45.7147 10.7956H42.3145V10.7147Z" fill="#3C58BF"/>
<path d="M45.148 1C44.1765 1 43.4479 1.08096 43.0431 2.05242L36 15.572H40.3716L41.1811 13.1433H46.3623L46.848 15.572H50.7339L47.3338 1H45.148ZM42.3145 10.7147C42.6383 9.9051 43.9336 6.42402 43.9336 6.42402C43.9336 6.42402 44.2575 5.53351 44.5003 4.96682L44.7432 6.34306C44.7432 6.34306 45.5527 9.98606 45.7147 10.7956H42.3145V10.7147Z" fill="#293688"/>
<path d="M11.0717 11.1194L10.6669 9.01459C9.93828 6.58593 7.59058 3.9144 5 2.61911L8.643 15.572H13.0146L19.572 1H15.2004L11.0717 11.1194Z" fill="#3C58BF"/>
<path d="M11.0717 11.1194L10.6669 9.01459C9.93828 6.58593 7.59058 3.9144 5 2.61911L8.643 15.572H13.0146L19.572 1H16.0099L11.0717 11.1194Z" fill="#293688"/>
<path d="M0 1L0.728599 1.16191C5.90975 2.37624 9.47179 5.45255 10.848 9.09555L9.39083 2.21433C9.14797 1.24287 8.41937 1 7.52886 1H0Z" fill="#FFBC00"/>
<path d="M0 1C5.18115 2.21433 9.47179 5.3716 10.848 9.01459L9.47179 3.26675C9.22892 2.29529 8.41937 1.7286 7.52886 1.7286L0 1Z" fill="#F7981D"/>
<path d="M0 1C5.18115 2.21433 9.47179 5.3716 10.848 9.01459L9.87656 5.85733C9.6337 4.88586 9.30988 3.9144 8.1765 3.50962L0 1Z" fill="#ED7C00"/>
<path d="M15.0385 11.0955L12.286 8.34306L10.9907 11.4194L10.6669 9.39548C9.93828 6.96682 7.59057 4.29529 5 3L8.64299 15.9529H13.0146L15.0385 11.0955Z" fill="#051244"/>
<path d="M22.1287 15.562L18.6476 12L18 15.562H22.1287Z" fill="#051244"/>
<path d="M32.0431 11C32.3669 11.3238 32.5289 11.5667 32.4479 11.8905C32.4479 12.862 31.1526 13.3477 30.0192 13.3477C28.4001 13.3477 27.5096 13.1048 26.1334 12.5382L25.5667 12.2953L25 15.6145C25.9715 16.0192 27.7525 16.424 29.6145 16.424C32.205 16.424 34.3099 15.6954 35.5242 14.4001L32.0431 11Z" fill="#051244"/>
<path d="M37 15.6052H40.8049L41.6145 13.1765H46.7956L47.2813 15.6052H51.1672L49.791 9.69542L44.9336 5L45.1765 6.29529C45.1765 6.29529 45.9861 9.93828 46.148 10.7478H42.7478C43.0717 9.93828 44.3669 6.4572 44.3669 6.4572C44.3669 6.4572 44.6908 5.56669 44.9336 5" fill="#051244"/>
</g>
<defs>
<clipPath id="clip0_38_587">
<rect width="51.0019" height="17.0006" fill="white"/>
</clipPath>
</defs>
</svg>
