<svg width="73" height="16" viewBox="0 0 73 16" fill="none" xmlns="http://www.w3.org/2000/svg">
<path d="M41.713 1.70091C41.5911 1.33231 41.4313 1.01955 41.0872 1.00558H41.0655H40.7784H40.2257C40.2014 1.00279 40.1743 1 40.1472 1H39.8709C39.8438 1 39.8167 1.00279 39.7923 1.00558C39.5051 1.05026 39.3616 1.34627 39.2532 1.69254L35 13.9432C35 14.1051 35.1273 14.2364 35.2844 14.2364H36.173C36.5252 14.2364 36.7067 13.9376 36.8123 13.5773L37.6603 11.025C37.7199 10.8491 37.8797 10.7318 38.0612 10.7318H42.7912C42.97 10.7318 43.1298 10.8491 43.1894 11.0222L44.0726 13.6025C44.1809 13.9627 44.3706 14.2615 44.739 14.2615H45.6682C45.8334 14.2615 45.9662 14.1303 45.9662 13.9683L41.713 1.70091ZM38.2427 9.2825L40.3883 2.83745L42.5961 9.2825H38.2427Z" fill="#76A62D"/>
<path d="M54.0244 1.03932C53.9106 0.994638 53.2523 1.00022 53.2523 1.00022C52.8108 1.01139 52.529 1.00022 52.3313 1.28226C52.3015 1.32415 52.2798 1.36883 52.2581 1.41351L49.6222 7.29169L46.9078 1.4163C46.8861 1.37162 46.8645 1.32694 46.8347 1.28506C46.6369 1.00302 46.3552 1.01139 45.9136 1.00302C45.9136 1.00302 45.2553 0.997431 45.1415 1.04211C44.8706 1.14822 45.0494 1.4917 45.1767 1.77374L48.5061 8.62091C48.6578 8.93367 48.7364 9.27714 48.7364 9.6262V13.7591C48.7364 14.0383 48.9558 14.2645 49.2267 14.2645H49.9229C50.1939 14.2645 50.4133 14.0383 50.4133 13.7591V9.64575C50.4133 9.29669 50.4918 8.95321 50.6435 8.64046L53.9865 1.77095C54.1165 1.48891 54.2953 1.14543 54.0244 1.03932Z" fill="#76A62D"/>
<path d="M66.3732 6.93565L58.3816 0.035423C58.322 -0.0148417 58.2353 -0.0120492 58.1811 0.0465929L57 1.31438L63.526 6.93565L57 12.5569L58.1811 13.8247C58.2353 13.8833 58.322 13.8861 58.3816 13.8359L66.3732 6.93565Z" fill="#76A62D"/>
<path d="M72.3732 6.93565L64.3816 0.035423C64.322 -0.0148417 64.2353 -0.0120492 64.1811 0.0465929L63 1.31438L69.526 6.93565L63 12.5569L64.1811 13.8247C64.2353 13.8833 64.322 13.8861 64.3816 13.8359L72.3732 6.93565Z" fill="#76A62D"/>
<path d="M9.38702 0H8.37926C8.16796 0 8 0.175927 8 0.390948V12.8315C8 13.0577 8.1788 13.2448 8.40093 13.2448H9.37076C9.5902 13.2448 9.7717 13.0605 9.7717 12.8315V0.393741C9.76899 0.175927 9.59832 0 9.38702 0Z" fill="#76A62D"/>
<path d="M6.17657 11.6642H1.67689V0.390948C1.67689 0.173134 1.50622 0 1.29762 0H0.379263C0.167959 0 0 0.175927 0 0.390948V11.667V12.6974C0 12.9543 0.200468 13.161 0.449698 13.161H1.67959H6.17928C6.396 13.161 6.56938 12.9823 6.56938 12.7589V12.0663C6.56667 11.8457 6.39058 11.6642 6.17657 11.6642Z" fill="#76A62D"/>
<path d="M33.3066 0.667404C32.7458 0.276456 31.9711 0 30.4892 0H28.1513H27.6204C27.279 0 27 0.284833 27 0.639479V12.5243C27 12.8873 27.2844 13.1833 27.6393 13.1833H28.1324C28.4845 13.1833 28.7717 12.8901 28.7717 12.5243V8.05911C29.3027 8.05911 31.1394 8.05911 31.3561 8.05911C31.6081 8.05911 34.8426 7.53691 34.8426 3.90669C34.8399 2.32614 34.0543 1.19239 33.3066 0.667404ZM30.7683 6.69079C30.6003 6.69079 28.9668 6.69079 28.9668 6.69079H28.769V1.36832H30.1939C31.1719 1.36832 31.6839 1.54983 32.055 1.80953C32.5508 2.1558 33.0682 2.90418 33.0682 3.94857C33.0709 6.34732 30.9362 6.69079 30.7683 6.69079Z" fill="#76A62D"/>
<path d="M25.6023 13.7055C25.5319 13.6524 25.4534 13.6134 25.3694 13.5798C24.703 13.3173 23.7304 12.622 23.1886 12.2618C22.7687 11.9825 22.8337 11.7619 22.8906 11.6698C22.9015 11.6558 22.915 11.6391 22.9258 11.6251C22.9285 11.6223 22.9285 11.6223 22.9285 11.6223C23.8496 10.4578 24.3833 8.79911 24.3833 6.70475C24.3833 3.00192 22.8473 0 18.6781 0C14.8421 0 13 3.00192 13 6.70475C13 10.4076 14.238 13.577 18.6781 13.577C19.5802 13.577 20.4092 13.3983 21.1379 13.0521H21.1406C21.3546 12.9571 21.5632 12.9599 21.8504 13.1749C23.9092 14.7471 24.9305 15.3251 25.6619 15.3251C26.0141 15.3251 25.9518 14.2081 25.9518 14.2081C25.9518 14.2081 25.9003 13.9261 25.6023 13.7055ZM14.8205 6.73268C14.8205 6.7243 14.8205 6.71592 14.8205 6.70475C14.8259 4.19152 15.7144 1.5247 18.6835 1.5247C22.0481 1.5247 22.5628 4.19152 22.5655 6.70475C22.5655 6.71313 22.5655 6.72151 22.5655 6.73268C22.5655 9.72342 21.6255 11.9965 18.6835 11.9965C15.3054 11.9965 14.8205 9.25429 14.8205 6.73268Z" fill="#76A62D"/>
</svg>
